<?xml version="1.0" encoding="utf-8"?><svg viewBox="0 0 109 30" xmlns="http://www.w3.org/2000/svg" xmlns:xlink="http://www.w3.org/1999/xlink"><style>:root>svg{display:none}:root>svg:target{display:block}</style><svg viewBox="0 0 15 14" id="arrow" xmlns="http://www.w3.org/2000/svg"><path fill-rule="evenodd" clip-rule="evenodd" d="M0 8V6h12v2H0z"/><path fill-rule="evenodd" clip-rule="evenodd" d="M14.414 7l-6.707 6.707-1.414-1.414L11.586 7 6.293 1.707 7.707.293 14.414 7z"/></svg><svg viewBox="0 0 9 9" id="arrow-2" xmlns="http://www.w3.org/2000/svg"><path fill-rule="evenodd" clip-rule="evenodd" d="M1.226.48h6.75a.75.75 0 01.75.75v6.75a.75.75 0 11-1.5 0V3.04l-5.79 5.791-1.061-1.06 5.79-5.791H1.227a.75.75 0 110-1.5z"/></svg><svg viewBox="0 0 109 30" id="logo" xmlns="http://www.w3.org/2000/svg"><path d="M6.8 1v21.84h10V29H.4V1h6.4zM41.697 25.36c-2.827 2.8-6.267 4.2-10.32 4.2s-7.493-1.4-10.32-4.2c-2.827-2.8-4.24-6.253-4.24-10.36 0-4.107 1.413-7.56 4.24-10.36s6.267-4.2 10.32-4.2 7.493 1.4 10.32 4.2c2.827 2.8 4.24 6.253 4.24 10.36 0 4.107-1.413 7.56-4.24 10.36zM23.217 15c0 2.453.773 4.453 2.32 6 1.547 1.547 3.493 2.32 5.84 2.32 2.32 0 4.253-.773 5.8-2.32 1.573-1.573 2.36-3.573 2.36-6s-.787-4.427-2.36-6c-1.547-1.547-3.48-2.32-5.8-2.32-2.347 0-4.293.773-5.84 2.32-1.547 1.547-2.32 3.547-2.32 6zM63.22 13.4h14.04v2.4c0 4.16-1.306 7.507-3.92 10.04-2.586 2.48-5.88 3.72-9.88 3.72-4.346 0-7.96-1.4-10.84-4.2-2.853-2.8-4.28-6.24-4.28-10.32s1.414-7.533 4.24-10.36C55.407 1.853 58.888.44 63.02.44c2.587 0 4.96.587 7.12 1.76 2.187 1.147 3.894 2.693 5.12 4.64l-5.44 3.12c-.64-.987-1.573-1.773-2.8-2.36-1.2-.613-2.546-.92-4.04-.92-2.373 0-4.346.787-5.92 2.36-1.546 1.547-2.32 3.56-2.32 6.04 0 2.4.8 4.387 2.4 5.96 1.6 1.52 3.734 2.28 6.4 2.28 3.68 0 6.067-1.44 7.16-4.32h-7.48v-5.6zM104.549 25.36c-2.827 2.8-6.267 4.2-10.32 4.2-4.054 0-7.494-1.4-10.32-4.2-2.827-2.8-4.24-6.253-4.24-10.36 0-4.107 1.413-7.56 4.24-10.36 2.826-2.8 6.266-4.2 10.32-4.2 4.053 0 7.493 1.4 10.32 4.2 2.826 2.8 4.24 6.253 4.24 10.36 0 4.107-1.414 7.56-4.24 10.36zM86.069 15c0 2.453.773 4.453 2.32 6 1.546 1.547 3.493 2.32 5.84 2.32 2.32 0 4.253-.773 5.8-2.32 1.573-1.573 2.36-3.573 2.36-6s-.787-4.427-2.36-6c-1.547-1.547-3.48-2.32-5.8-2.32-2.347 0-4.294.773-5.84 2.32-1.547 1.547-2.32 3.547-2.32 6z"/></svg><svg viewBox="0 0 18 15" id="soc-tlg" xmlns="http://www.w3.org/2000/svg"><path fill-rule="evenodd" clip-rule="evenodd" d="M15.941 1.028L1.251 6.65c-1.007.391-.99.944-.173 1.201L4.84 9.015l8.724-5.451c.405-.268.781-.116.474.152l-7.06 6.33-.27 3.847c.393 0 .565-.17.768-.372l1.837-1.757 3.81 2.786c.694.39 1.19.19 1.376-.64l2.501-11.695-.001.001c.22-1.023-.375-1.432-1.057-1.188z"/></svg><svg viewBox="0 0 17 17" id="soc-whts" xmlns="http://www.w3.org/2000/svg"><path fill-rule="evenodd" clip-rule="evenodd" d="M6.438 4.75c-.15-.334-.308-.34-.45-.346-.117-.005-.25-.005-.384-.005s-.35.05-.534.25c-.184.201-.701.685-.701 1.67 0 .986.717 1.938.817 2.072.1.133 1.386 2.22 3.421 3.023 1.692.667 2.036.534 2.404.5.367-.033 1.184-.483 1.351-.951.167-.468.167-.868.117-.952-.05-.084-.183-.134-.384-.234-.2-.1-1.185-.585-1.368-.651-.184-.067-.317-.1-.45.1-.134.2-.518.651-.635.785-.117.134-.233.15-.434.05-.2-.1-.845-.312-1.61-.994-.596-.53-.997-1.186-1.114-1.387-.117-.2-.013-.308.088-.408.09-.09.2-.234.3-.351.1-.117.133-.2.2-.334s.034-.25-.017-.35c-.05-.1-.439-1.091-.617-1.487z"/><path d="M14.11 2.437A7.965 7.965 0 008.442.087C4.023.087.428 3.682.426 8.1c0 1.413.369 2.791 1.07 4.006L.359 16.257l4.249-1.114a8.01 8.01 0 003.83.975h.003c4.417 0 8.013-3.595 8.015-8.012a7.963 7.963 0 00-2.345-5.669zM8.442 14.765H8.44a6.653 6.653 0 01-3.391-.929l-.243-.144-2.522.661.673-2.457-.158-.252A6.642 6.642 0 011.779 8.1a6.67 6.67 0 016.665-6.66c1.78.001 3.452.695 4.71 1.954a6.619 6.619 0 011.949 4.711 6.67 6.67 0 01-6.662 6.66z"/></svg></svg>